<svg width="782" height="640" viewBox="0 0 782 640" fill="none" xmlns="http://www.w3.org/2000/svg">
<path d="M693.862 394.661C806.799 532.088 739.977 930.251 391.743 934.957C-83.487 941.38 -99.5295 221.465 397.39 221.465C436.454 221.465 470.051 226.46 498.093 231.946M764.439 174.401C676.912 254.778 600.678 251.586 556.444 244.056C540.864 241.403 521.397 236.505 498.093 231.946M764.439 174.401C819.026 124.273 837.849 38.0572 787.968 10.6181C750.322 -10.0906 574.326 -17.6205 515.034 155.575C509.387 194.168 559.551 124.901 649.618 132.985C723.028 139.574 733.381 149.928 764.439 174.401ZM764.439 174.401C780.125 179.735 813.567 197.368 821.849 225.23C832.202 260.058 771.027 317.476 706.087 323.124C641.148 328.771 583.738 325.26 498.093 231.946" stroke="#3C9939" stroke-width="60" stroke-linecap="round"/>
</svg>
